<?xml version="1.0" encoding="iso-8859-1"?>
<!-- Uploaded to: SVG Repo, www.svgrepo.com, Generator: SVG Repo Mixer Tools -->
<!DOCTYPE svg PUBLIC "-//W3C//DTD SVG 1.1//EN" "http://www.w3.org/Graphics/SVG/1.1/DTD/svg11.dtd">
<svg fill="#000000" height="800px" width="800px" version="1.1" id="Capa_1" xmlns="http://www.w3.org/2000/svg" xmlns:xlink="http://www.w3.org/1999/xlink" 
	 viewBox="0 0 482.112 482.112" xml:space="preserve">
<g>
	<path d="M241.055,0C108.141,0,0.007,108.134,0.007,241.048c0,132.922,108.134,241.064,241.048,241.064
		c132.915,0,241.05-108.142,241.05-241.064C482.105,108.134,373.97,0,241.055,0z M241.055,434.267
		c-106.53,0-193.202-86.68-193.202-193.218c0-106.531,86.672-193.203,193.202-193.203c106.53,0,193.204,86.672,193.204,193.203
		C434.259,347.587,347.585,434.267,241.055,434.267z"/>
	<path d="M241.055,181.561c-32.862,0-59.494,26.634-59.494,59.496s26.632,59.496,59.494,59.496
		c32.863,0,59.496-26.634,59.496-59.496S273.918,181.561,241.055,181.561z"/>
</g>
</svg>